<?xml version="1.0" encoding="UTF-8"?>
<svg xmlns="http://www.w3.org/2000/svg" xmlns:xlink="http://www.w3.org/1999/xlink" width="5000" height="3000" viewBox="0 0 5000 3000">
<path fill="none" stroke-width="1" stroke-linecap="butt" stroke-linejoin="miter" stroke="rgb(0%, 100%, 0%)" stroke-opacity="1" stroke-miterlimit="10" d="M 2277 1682 C 2277 1730.023438 2238.089844 1768.960938 2190.070312 1769 C 2142.046875 1769.039062 2103.078125 1730.160156 2103 1682.136719 C 2102.921875 1634.117188 2141.769531 1595.113281 2189.792969 1595 C 2237.8125 1594.886719 2276.847656 1633.703125 2277 1681.722656 L 2282 1392 C 2282 1444.988281 2239.066406 1487.957031 2186.078125 1488 C 2133.085938 1488.042969 2090.085938 1445.140625 2090 1392.152344 C 2089.914062 1339.164062 2132.78125 1296.125 2185.769531 1296 C 2238.761719 1295.875 2281.832031 1338.703125 2282 1391.695312 L 2281 1108 C 2281 1160.4375 2238.511719 1202.957031 2186.074219 1203 C 2133.636719 1203.042969 2091.082031 1160.589844 2091 1108.152344 C 2090.917969 1055.714844 2133.335938 1013.125 2185.773438 1013 C 2238.210938 1012.875 2280.832031 1055.261719 2281 1107.699219 L 1624 852 C 1624 863.039062 1615.054688 871.992188 1604.015625 872 C 1592.976562 872.007812 1584.019531 863.070312 1584 852.03125 C 1583.984375 840.992188 1592.914062 832.027344 1603.953125 832 C 1614.992188 831.972656 1623.964844 840.898438 1624 851.9375 L 1506 1024 C 1506 1035.039062 1497.054688 1043.992188 1486.015625 1044 C 1474.976562 1044.007812 1466.019531 1035.070312 1466 1024.03125 C 1465.984375 1012.992188 1474.914062 1004.027344 1485.953125 1004 C 1496.992188 1003.972656 1505.964844 1012.898438 1506 1023.9375 "/>
</svg>
